<svg 
 xmlns="http://www.w3.org/2000/svg"
 xmlns:xlink="http://www.w3.org/1999/xlink"
 width="520px" height="117px">
<path fill-rule="evenodd"  fill="rgb(254, 254, 252)"
 d="M519.241,50.173 C519.218,51.043 518.041,51.885 517.398,52.741 C516.770,51.849 515.649,50.983 515.599,50.059 C515.392,46.287 515.513,42.496 515.513,38.231 C513.148,40.557 511.188,44.020 509.138,44.074 C507.047,44.130 504.867,40.833 502.151,38.513 C502.151,42.244 502.331,45.775 502.053,49.270 C501.957,50.476 500.723,51.592 500.009,52.750 C499.286,51.607 497.993,50.491 497.939,49.317 C497.707,44.266 497.741,39.194 497.908,34.138 C497.947,32.961 498.938,30.812 499.405,30.835 C500.934,30.911 502.917,31.366 503.825,32.434 C505.618,34.548 506.808,37.169 508.224,39.542 C512.880,37.582 511.720,29.368 519.326,30.859 C519.326,37.549 519.400,43.864 519.241,50.173 ZM487.796,34.061 C487.796,39.439 487.929,44.450 487.696,49.444 C487.643,50.584 486.327,51.667 485.592,52.776 C484.857,51.649 483.573,50.563 483.486,49.388 C483.206,45.628 483.257,41.832 483.400,38.058 C483.505,35.265 483.009,33.472 479.582,33.737 C478.686,33.807 477.698,32.709 476.753,32.148 C477.730,31.607 478.686,30.651 479.687,30.602 C483.470,30.416 487.275,30.396 491.055,30.603 C492.174,30.663 493.240,31.670 494.331,32.244 C493.201,32.776 492.104,33.402 490.930,33.804 C490.214,34.049 489.379,33.950 487.796,34.061 ZM470.880,80.084 C472.336,79.973 473.894,81.197 475.405,81.811 C473.990,82.887 472.679,84.704 471.144,84.917 C461.369,86.275 458.296,83.542 458.237,73.852 C458.189,65.987 458.227,58.122 458.227,51.005 C455.579,48.193 450.120,51.661 450.355,46.535 C450.571,41.832 455.616,45.744 458.031,43.029 C458.152,40.523 458.302,37.434 458.464,34.077 C460.545,34.077 462.347,34.077 464.133,34.077 C464.389,34.688 464.686,35.105 464.729,35.545 C464.983,38.186 464.304,41.516 465.675,43.255 C466.741,44.606 470.389,43.757 472.785,44.324 C473.807,44.567 475.392,46.108 475.255,46.745 C475.010,47.877 473.808,49.352 472.723,49.645 C470.362,50.282 466.463,49.428 465.665,50.710 C464.356,52.816 464.906,56.134 464.864,58.944 C464.787,64.001 465.066,69.072 464.794,74.115 C464.548,78.686 466.300,80.431 470.880,80.084 ZM434.014,79.513 C437.472,79.627 440.937,79.534 444.679,79.534 C445.801,82.832 444.598,84.492 441.568,84.658 C437.617,84.876 433.607,85.266 429.704,84.840 C423.599,84.172 419.197,79.794 418.403,73.093 C417.738,67.486 417.652,61.689 418.268,56.081 C419.177,47.807 424.389,43.459 432.742,43.272 C436.051,43.199 439.423,43.530 442.661,44.190 C443.649,44.391 444.286,46.305 445.084,47.434 C444.060,48.070 443.059,49.197 442.005,49.249 C439.006,49.398 435.978,48.911 432.976,49.036 C428.421,49.226 425.325,51.676 424.928,56.239 C424.491,61.250 424.334,66.360 424.809,71.356 C425.356,77.095 428.227,79.322 434.014,79.513 ZM400.201,66.676 C395.440,66.676 390.675,66.804 385.919,66.644 C382.816,66.540 382.106,67.941 382.419,70.698 C383.025,76.039 385.715,78.942 391.407,79.266 C396.741,79.569 402.106,79.331 407.741,79.331 C408.964,82.255 408.145,84.253 404.440,84.418 C399.069,84.657 393.647,85.220 388.327,84.750 C381.602,84.157 377.323,80.257 376.530,73.649 C375.824,67.761 375.723,61.618 376.590,55.770 C377.815,47.507 383.827,43.280 392.545,43.205 C401.379,43.129 406.884,47.238 408.890,55.407 C411.465,65.889 410.856,66.677 400.201,66.676 ZM392.419,48.992 C385.574,49.138 382.109,53.377 382.974,60.903 C389.361,60.903 395.791,60.903 402.586,60.903 C403.054,52.815 399.547,48.840 392.419,48.992 ZM365.908,32.209 C358.008,31.367 357.876,34.553 358.385,42.055 C358.437,42.826 360.198,43.884 361.303,44.094 C363.145,44.443 365.168,43.916 366.974,44.346 C367.960,44.582 369.280,46.007 369.307,46.929 C369.333,47.849 367.940,48.815 367.147,49.742 C367.076,49.824 366.841,49.760 366.683,49.774 C364.047,50.007 359.983,49.324 359.102,50.687 C357.692,52.866 358.268,56.400 358.229,59.364 C358.146,65.854 358.213,72.346 358.199,78.836 C358.187,84.596 358.127,84.635 351.546,83.640 C351.546,73.915 351.400,64.440 351.620,54.974 C351.704,51.359 351.049,49.275 346.875,49.284 C345.927,49.287 344.976,47.479 344.026,46.504 C344.981,45.741 346.011,44.247 346.877,44.337 C351.354,44.799 351.598,42.341 351.621,38.869 C351.686,29.058 356.933,25.045 366.493,27.453 C367.718,27.761 368.572,29.534 369.598,30.629 C368.365,31.187 367.068,32.333 365.908,32.209 ZM337.284,49.468 C336.658,49.471 336.030,49.637 335.408,49.752 C327.704,51.189 327.481,51.447 327.475,59.113 C327.468,67.281 327.473,75.448 327.473,83.473 C321.254,84.757 320.898,84.534 320.886,79.443 C320.863,69.027 321.022,58.608 320.813,48.197 C320.730,44.083 323.620,42.911 325.729,44.550 C328.695,46.856 330.491,45.082 332.869,44.490 C335.411,43.857 338.029,43.531 340.719,43.053 C342.288,47.522 341.209,49.451 337.284,49.468 ZM301.595,66.676 C295.925,66.676 290.256,66.676 284.299,66.676 C283.606,75.691 286.469,79.064 294.485,79.417 C297.011,79.529 299.554,79.359 302.085,79.238 C304.423,79.127 306.757,78.909 309.151,78.733 C310.461,82.102 309.885,84.260 306.122,84.435 C300.757,84.685 295.343,85.218 290.022,84.771 C283.265,84.203 278.972,80.435 278.187,73.785 C277.458,67.607 277.367,61.135 278.387,55.025 C279.715,47.061 285.771,43.179 294.389,43.201 C303.001,43.222 308.410,47.259 310.425,55.169 C313.123,65.760 312.420,66.676 301.595,66.676 ZM293.922,48.990 C287.181,49.179 283.773,53.314 284.385,60.777 C290.999,60.777 297.623,60.777 304.227,60.777 C304.438,52.595 300.980,48.792 293.922,48.990 ZM253.341,85.154 C250.359,85.191 247.372,84.874 243.687,84.683 C243.687,90.167 243.614,95.199 243.719,100.228 C243.769,102.667 243.240,104.054 240.356,104.063 C237.378,104.071 237.067,102.511 237.073,100.156 C237.122,82.779 237.196,65.402 237.039,48.026 C237.000,43.721 239.320,44.005 242.243,44.382 C244.014,44.610 246.016,45.090 247.584,44.534 C259.486,40.314 268.001,45.259 269.212,57.686 C269.667,62.355 269.546,67.194 268.868,71.836 C267.538,80.927 262.500,85.041 253.341,85.154 ZM262.656,58.012 C262.260,54.484 261.489,50.270 257.501,49.888 C253.345,49.489 248.991,50.839 244.778,51.695 C244.245,51.803 243.753,53.546 243.741,54.537 C243.656,61.631 243.615,68.730 243.798,75.821 C243.826,76.895 244.949,78.719 245.807,78.875 C256.673,80.854 262.394,79.513 262.845,67.461 C262.886,66.359 262.850,65.254 262.850,64.151 C262.799,64.151 262.748,64.151 262.697,64.151 C262.697,62.103 262.883,60.034 262.656,58.012 ZM233.877,31.681 C218.724,4.280 182.279,-3.095 157.057,16.143 C155.425,17.388 153.840,18.695 152.233,19.973 C165.425,3.516 183.175,-2.123 203.302,0.933 C224.582,4.163 239.344,16.701 248.337,36.249 C240.808,38.975 237.248,37.778 233.877,31.681 ZM190.656,95.538 C169.539,95.672 152.406,78.726 152.332,57.632 C152.259,36.510 169.271,19.364 190.300,19.368 C211.387,19.371 228.469,36.465 228.425,57.518 C228.382,78.411 211.500,95.405 190.656,95.538 ZM190.494,28.376 C174.805,28.144 161.423,41.417 161.313,57.320 C161.204,73.146 174.380,86.472 190.220,86.556 C206.177,86.642 219.213,73.650 219.277,57.599 C219.342,41.514 206.636,28.614 190.494,28.376 ZM193.903,61.421 C194.782,63.537 195.504,65.737 196.577,67.751 C198.026,70.471 199.825,73.006 201.304,75.712 C201.805,76.629 201.791,77.826 202.012,78.895 C200.931,78.606 199.194,78.635 198.873,77.977 C196.330,72.767 194.056,67.424 191.700,62.123 C192.434,61.889 193.169,61.655 193.903,61.421 ZM207.670,71.347 C208.215,71.729 208.190,72.918 208.428,73.735 C207.572,73.882 206.582,74.382 205.882,74.118 C201.837,72.597 199.345,69.641 197.895,65.028 C201.527,67.342 204.668,69.246 207.670,71.347 ZM194.601,59.691 C194.755,59.291 194.910,58.891 195.064,58.490 C201.147,61.002 207.230,63.514 213.314,66.026 C204.699,69.727 200.692,62.147 194.601,59.691 ZM212.855,60.238 C209.005,60.337 205.147,60.133 201.293,60.027 C201.353,59.471 201.414,58.915 201.475,58.358 C205.105,57.872 208.727,57.311 212.370,56.965 C213.075,56.899 213.861,57.674 214.609,58.060 C214.025,58.821 213.458,60.222 212.855,60.238 ZM195.283,57.095 C195.092,56.348 194.900,55.600 194.708,54.852 C196.600,54.414 198.542,54.127 200.371,53.507 C203.743,52.364 207.029,50.971 210.394,49.807 C211.286,49.499 212.335,49.645 213.313,49.582 C212.963,50.620 212.835,52.400 212.228,52.580 C206.627,54.242 200.943,55.629 195.283,57.095 ZM198.725,51.871 C201.987,48.307 204.526,45.448 207.193,42.712 C207.589,42.306 209.106,42.226 209.215,42.441 C209.574,43.154 209.890,44.251 209.577,44.881 C207.528,49.009 203.772,50.571 198.725,51.871 ZM199.745,46.822 C197.843,49.408 195.602,51.746 193.507,54.192 C192.958,53.707 192.408,53.222 191.858,52.737 C193.222,50.951 194.729,49.253 195.916,47.358 C197.642,44.599 199.057,41.648 200.777,38.886 C201.316,38.019 202.408,37.494 203.247,36.812 C203.524,37.768 204.309,38.966 203.987,39.634 C202.785,42.135 201.390,44.587 199.745,46.822 ZM193.668,36.024 C193.699,35.277 194.527,34.561 194.987,33.830 C195.691,34.479 196.863,35.031 197.021,35.791 C197.903,40.044 196.391,43.626 193.606,46.844 C193.606,43.017 193.527,39.516 193.668,36.024 ZM193.874,81.526 C193.119,81.130 191.805,80.850 191.696,80.322 C190.910,76.515 190.369,72.659 189.749,68.818 C190.328,68.787 190.906,68.755 191.485,68.725 C192.611,72.215 193.815,75.684 194.790,79.215 C194.967,79.853 194.204,80.749 193.874,81.526 ZM185.984,35.686 C185.858,34.986 186.560,34.138 186.878,33.358 C187.711,33.893 188.933,34.234 189.317,34.995 C192.272,40.860 190.048,46.757 189.276,52.487 C188.158,46.890 186.993,41.302 185.984,35.686 ZM179.134,38.883 C178.693,38.257 178.808,37.241 178.667,36.404 C179.625,36.423 180.912,36.046 181.486,36.524 C184.912,39.372 186.218,43.136 185.941,47.948 C183.374,44.563 181.177,41.777 179.134,38.883 ZM185.963,55.313 C184.558,53.755 183.275,52.062 181.722,50.667 C179.181,48.385 176.398,46.370 173.864,44.081 C173.111,43.401 172.853,42.178 172.369,41.203 C173.364,41.127 174.515,40.687 175.331,41.032 C181.479,43.637 183.289,49.786 187.164,54.265 C186.764,54.615 186.363,54.964 185.963,55.313 ZM180.342,53.010 C176.766,52.205 173.168,51.476 169.630,50.529 C168.948,50.347 168.495,49.311 167.936,48.669 C168.788,48.165 169.855,47.048 170.457,47.258 C174.084,48.522 177.605,50.091 181.162,51.558 C180.888,52.042 180.615,52.526 180.342,53.010 ZM175.570,54.601 C179.046,55.183 182.425,56.341 185.845,57.253 C185.708,57.702 185.571,58.152 185.433,58.601 C183.268,58.306 181.109,57.825 178.937,57.760 C175.671,57.664 172.394,57.955 169.127,57.875 C168.087,57.849 167.064,57.167 166.033,56.785 C166.731,56.064 167.364,54.815 168.140,54.720 C170.592,54.420 173.158,54.197 175.570,54.601 ZM179.309,58.967 C179.447,59.473 179.586,59.979 179.724,60.485 C176.579,62.125 173.475,63.856 170.256,65.338 C169.508,65.683 168.366,65.178 167.405,65.065 C167.798,64.153 167.974,62.669 168.621,62.424 C172.119,61.103 175.734,60.088 179.309,58.967 ZM172.038,69.078 C174.346,67.017 176.923,65.205 179.576,63.592 C181.821,62.227 184.315,61.268 186.698,60.130 C186.977,60.534 187.256,60.939 187.534,61.344 C185.324,62.772 183.012,64.068 180.930,65.662 C178.710,67.362 176.761,69.411 174.583,71.170 C173.732,71.857 172.580,72.174 171.565,72.659 C171.694,71.434 171.356,69.688 172.038,69.078 ZM179.864,76.886 C179.578,77.502 178.482,77.743 177.759,78.157 C177.419,77.372 176.701,76.535 176.800,75.810 C177.417,71.306 180.227,68.397 184.599,65.766 C182.793,70.077 181.428,73.528 179.864,76.886 ZM190.580,62.674 C189.600,65.767 188.430,68.815 187.702,71.965 C187.188,74.191 187.391,76.572 187.029,78.846 C186.888,79.725 186.070,80.497 185.561,81.318 C184.959,80.563 183.944,79.869 183.822,79.042 C182.850,72.478 187.154,67.729 189.088,62.153 C189.585,62.327 190.083,62.500 190.580,62.674 ZM219.086,103.287 C220.411,102.585 221.772,101.951 224.072,100.812 C202.844,124.057 159.120,121.284 139.482,91.348 C146.418,91.058 152.071,90.037 157.725,95.663 C173.454,111.314 198.882,113.999 219.086,103.287 ZM137.542,84.014 C136.474,83.923 135.275,82.458 134.589,81.346 C132.261,77.576 129.761,73.841 128.027,69.794 C125.846,64.701 122.322,64.198 117.223,65.651 C117.223,71.547 117.223,77.489 117.223,83.816 C112.690,83.816 108.678,83.816 104.200,83.816 C104.108,82.210 103.947,80.678 103.945,79.146 C103.925,64.431 104.061,49.714 103.845,35.003 C103.786,31.037 105.074,29.675 108.967,29.857 C116.872,30.224 124.836,29.867 132.690,30.657 C139.495,31.342 144.639,35.070 146.003,42.294 C147.394,49.665 146.801,56.560 139.883,61.355 C139.365,61.713 138.848,62.072 138.129,62.571 C142.020,69.665 145.724,76.414 149.963,84.140 C145.232,84.140 141.364,84.337 137.542,84.014 ZM133.106,48.178 C132.837,45.771 131.756,42.053 130.131,41.481 C126.434,40.178 122.181,40.400 118.143,40.196 C117.855,40.181 117.222,41.735 117.202,42.571 C117.102,46.637 117.157,50.706 117.157,55.690 C121.238,55.394 124.546,55.372 127.777,54.862 C131.416,54.287 133.500,51.709 133.106,48.178 ZM76.798,40.082 C71.218,39.691 72.300,43.272 72.093,46.482 C71.870,49.949 72.288,52.324 76.786,51.891 C80.557,51.528 84.421,52.117 88.189,51.738 C92.661,51.289 94.300,52.982 93.651,57.275 C93.488,58.356 93.472,59.458 93.331,61.292 C87.377,61.292 81.850,61.476 76.342,61.224 C72.903,61.066 71.995,62.381 72.082,65.605 C72.360,75.984 70.940,74.207 80.963,74.373 C85.513,74.450 90.066,74.386 94.916,74.386 C94.916,77.758 94.916,80.541 94.916,83.772 C83.031,83.772 71.093,83.772 58.794,83.772 C58.687,82.431 58.481,81.049 58.480,79.667 C58.465,64.651 58.577,49.633 58.419,34.619 C58.382,31.093 59.449,29.968 63.017,30.039 C73.588,30.249 84.167,30.114 94.971,30.114 C94.971,33.665 94.971,36.588 94.971,40.177 C88.748,40.177 82.747,40.500 76.798,40.082 ZM39.907,84.038 C38.588,83.862 36.902,82.041 36.431,80.625 C33.068,70.499 33.154,70.600 22.425,70.622 C19.291,70.628 17.990,71.721 17.136,74.627 C14.146,84.800 14.046,84.777 3.378,84.185 C2.624,84.143 1.881,83.911 0.606,83.665 C3.230,74.164 5.785,64.887 8.353,55.614 C10.381,48.291 12.496,40.990 14.422,33.640 C15.088,31.099 16.279,29.950 19.046,30.061 C23.804,30.252 28.582,29.971 33.336,30.208 C34.609,30.271 36.660,31.245 36.943,32.212 C41.919,49.196 46.675,66.244 51.739,84.200 C47.138,84.200 43.470,84.513 39.907,84.038 ZM26.005,39.388 C24.874,43.673 23.986,46.989 23.124,50.310 C22.272,53.596 21.446,56.888 20.504,60.584 C24.417,60.584 27.655,60.584 31.574,60.584 C29.683,53.385 27.976,46.891 26.005,39.388 Z"/>
</svg>